<?xml version="1.0" encoding="utf-8"?>
<!-- Generator: Adobe Illustrator 25.0.0, SVG Export Plug-In . SVG Version: 6.00 Build 0)  -->
<svg version="1.1" id="af58cd9d-70be-4f28-ac4d-d4da0e4b8921"
	 xmlns="http://www.w3.org/2000/svg" xmlns:xlink="http://www.w3.org/1999/xlink" x="0px" y="0px" viewBox="0 0 950.5 621.2"
	 style="enable-background:new 0 0 950.5 621.2;" xml:space="preserve">
<style type="text/css">
	.st0{fill:#E6E6E6;}
	.st1{fill:#FFC905;}
	.st2{fill:#2A9D8F;}
	.st3{fill:#FFFFFF;}
	.st4{fill:#3F3D56;}
	.st5{fill:#FFB8B8;}
	.st6{fill:#2F2E41;}
	.st7{fill:#9F616A;}
	.st8{fill:#FFC905;stroke:#2A9D8F;stroke-miterlimit:10;}
</style>
<ellipse class="st0" cx="129" cy="605.7" rx="129" ry="15"/>
<ellipse class="st0" cx="821.5" cy="606.2" rx="129" ry="15"/>
<path class="st0" d="M793.9,333.2H140.4c-3.8,0-6.9-3.1-6.9-6.9V6.9c0-3.8,3.1-6.9,6.9-6.9h653.5c3.8,0,6.9,3.1,6.9,6.9v319.4
	C800.8,330.1,797.7,333.2,793.9,333.2z M140.4,2.8c-2.3,0-4.1,1.9-4.1,4.1v319.4c0,2.3,1.9,4.1,4.1,4.1h653.5c2.3,0,4.1-1.9,4.1-4.1
	V6.9c0-2.3-1.9-4.1-4.1-4.1H140.4z"/>
<circle class="st1" cx="444.2" cy="128" r="10.7"/>
<circle class="st2" cx="444.2" cy="128" r="6.9"/>
<circle class="st1" cx="490.1" cy="128" r="10.7"/>
<circle class="st2" cx="490.1" cy="128" r="6.9"/>
<path class="st1" d="M443,128.8c-10.7,0-19.6,8.1-20.6,18.7l-2.1,22c-1,10.3,6.5,19.5,16.9,20.5c0.6,0.1,1.2,0.1,1.8,0.1h56.5
	c10.4,0,18.8-8.4,18.8-18.8c0-0.6,0-1.2-0.1-1.8l-2.1-22c-1-10.6-9.9-18.7-20.6-18.7L443,128.8z"/>
<path class="st3" d="M472.9,159.9c3.3-4.4,9.5-5.3,14-2.1c3.3-4.4,2.4-10.7-2-14s-10.7-2.4-14,2
	C467.5,150.3,468.4,156.6,472.9,159.9C472.9,159.9,472.9,159.9,472.9,159.9z"/>
<path class="st3" d="M449.5,161.8c3.3-4.4,9.5-5.3,14-2.1c3.3-4.4,2.4-10.7-2-14s-10.7-2.4-14,2
	C444.1,152.2,445.1,158.5,449.5,161.8C449.5,161.8,449.5,161.8,449.5,161.8z"/>
<circle class="st4" cx="456.1" cy="151.8" r="3.7"/>
<circle class="st4" cx="480" cy="149" r="3.7"/>
<circle class="st2" cx="467.4" cy="164.8" r="3.8"/>
<path class="st3" d="M452.1,170.9c0.4,4.3,4,7.7,8.4,7.7h15.3c4.4,0,8-3.3,8.4-7.7H452.1z"/>
<path class="st0" d="M229.9,139.1c0,5.9-4.8,10.7-10.7,10.7c-5.9,0-10.7-4.8-10.7-10.7c0,0,0,0,0,0c0-5.9,4.8-30.6,10.7-30.6
	S229.9,133.2,229.9,139.1z"/>
<path class="st3" d="M226.1,139.1c0,3.8-3.1,6.9-6.9,6.9c-3.8,0-6.9-3.1-6.9-6.9c0-3.8,3.1-26.8,6.9-26.8S226.1,135.3,226.1,139.1z"
	/>
<path class="st0" d="M254.4,139.1c0,5.9,4.8,10.7,10.7,10.7c5.9,0,10.7-4.8,10.7-10.7l0,0c0-5.9-4.8-32.9-10.7-32.9
	S254.4,133.2,254.4,139.1z"/>
<path class="st3" d="M258.2,139.1c0,3.8,3.1,6.9,6.9,6.9c3.8,0,6.9-3.1,6.9-6.9c0-3.8-3.1-29.1-6.9-29.1S258.2,135.3,258.2,139.1z"
	/>
<path class="st0" d="M218,139.9c-10.7,0-19.6,8.1-20.6,18.7l-2.1,22c-1,10.3,6.5,19.5,16.9,20.5c0.6,0.1,1.2,0.1,1.8,0.1h56.5
	c10.4,0,18.8-8.4,18.8-18.8c0-0.6,0-1.2-0.1-1.8l-2.1-22c-1-10.6-9.9-18.7-20.6-18.7H218z"/>
<path class="st3" d="M247.9,171c3.3-4.4,9.5-5.3,14-2.1c3.3-4.4,2.4-10.7-2-14c-4.4-3.3-10.7-2.4-14,2
	C242.5,161.4,243.4,167.7,247.9,171C247.9,171,247.9,171,247.9,171z"/>
<path class="st3" d="M224.5,172.9c3.3-4.4,9.5-5.3,14-2.1c3.3-4.4,2.4-10.7-2-14c-4.4-3.3-10.7-2.4-14,2
	C219.1,163.3,220.1,169.6,224.5,172.9C224.5,172.9,224.5,172.9,224.5,172.9z"/>
<circle class="st0" cx="231.1" cy="169.1" r="3.7"/>
<ellipse transform="matrix(0.1602 -0.9871 0.9871 0.1602 49.9651 392.7441)" class="st0" cx="255.8" cy="167" rx="3.7" ry="3.7"/>
<circle class="st3" cx="242.4" cy="175.9" r="3.8"/>
<path class="st3" d="M250.4,178.7c1.3-0.7,2.8-0.2,4.1,0.3c1.4,0.6,2.8,1.2,4.2,1.7c2.7,0.9,5.6,1.2,8.4,0.7c5.1-1,9.4-5.5,8.2-10.9
	c-0.3-1.4-2.5-0.8-2.2,0.6c0.4,2.2-0.4,4.4-2.1,5.9c-1.9,1.6-4.3,2.4-6.8,2.3c-2.7-0.1-5.4-0.8-7.8-2c-2.3-1-4.8-1.9-7.2-0.7
	C247.9,177.4,249.1,179.4,250.4,178.7z"/>
<path class="st3" d="M235.8,176.7c-2.4-1.2-4.8-0.4-7.1,0.6c-2.5,1.2-5.2,1.9-8,2.1c-2.4,0.1-4.8-0.7-6.6-2.2
	c-1.7-1.5-2.6-3.8-2.2-6c0.3-1.4-1.9-2.1-2.2-0.6c-1.1,5.4,3.1,10,8.2,10.9c2.8,0.5,5.7,0.2,8.4-0.7c1.4-0.5,2.8-1.1,4.2-1.7
	c1.3-0.5,2.8-1,4.1-0.3C236,179.4,237.1,177.4,235.8,176.7L235.8,176.7z"/>
<ellipse class="st3" cx="243.3" cy="186.3" rx="6.1" ry="3.1"/>
<circle class="st1" cx="653.5" cy="137.3" r="21.6"/>
<circle class="st2" cx="653.5" cy="137.3" r="13.9"/>
<circle class="st1" cx="730.8" cy="137.3" r="21.6"/>
<circle class="st2" cx="730.8" cy="137.3" r="13.9"/>
<path class="st1" d="M668.3,130.4c-0.3,0-0.7,0-1,0c-12.5,0.6-21.1,12.8-18,24.9l0.4,1.8c1.6,6.2,2.6,12.6,3.7,18.9
	c1.5,9.1,9.3,15.7,18.5,15.7h41.2c9.6,0,17.6-7.2,18.7-16.7c0.7-5.7,1.8-11.4,3.3-17l0.7-2.7c3-12.1-5.6-24.3-18-24.9
	c-0.3,0-0.7,0-1,0L668.3,130.4z"/>
<path class="st3" d="M698.3,161.5c3.3-4.4,9.5-5.3,14-2.1c3.3-4.4,2.4-10.7-2-14c-4.4-3.3-10.7-2.4-14,2
	C692.9,151.9,693.8,158.2,698.3,161.5C698.2,161.5,698.2,161.5,698.3,161.5z"/>
<path class="st3" d="M674.9,163.4c3.3-4.4,9.5-5.3,14-2.1c3.3-4.4,2.4-10.7-2-14s-10.7-2.4-14,2
	C669.5,153.8,670.4,160.1,674.9,163.4C674.9,163.4,674.9,163.4,674.9,163.4z"/>
<circle class="st4" cx="677.7" cy="153.4" r="3.7"/>
<circle class="st4" cx="701.6" cy="152.2" r="3.7"/>
<path class="st2" d="M696.6,166.4c0,2.1-1.7,3.8-3.8,3.8s-3.8-1.7-3.8-3.8c0-0.9,0.3-1.8,0.9-2.5c0.7-0.8,1.5,1.7,2.7,1.7
	c1.2,0,2.5-2.5,3.2-1.6C696.3,164.7,696.6,165.6,696.6,166.4z"/>
<path class="st3" d="M684.3,171.8h18.4l0,0l0,0c0,5.1-4.1,9.2-9.2,9.2l0,0l0,0C688.5,181,684.3,176.9,684.3,171.8L684.3,171.8
	L684.3,171.8L684.3,171.8z"/>
<ellipse class="st2" cx="689.9" cy="126.6" rx="5" ry="8.4"/>
<ellipse transform="matrix(0.5736 -0.8192 0.8192 0.5736 192.4926 626.0239)" class="st2" cx="697.5" cy="128.1" rx="8.4" ry="5"/>
<path class="st0" d="M306.9,230.3H177.4c-3.8,0-6.9-3.1-6.9-6.9V84c0-3.8,3.1-6.9,6.9-6.9h129.5c3.8,0,6.9,3.1,6.9,6.9v139.4
	C313.8,227.2,310.7,230.3,306.9,230.3z M177.4,79.9c-2.3,0-4.1,1.9-4.1,4.1v139.4c0,2.3,1.9,4.1,4.1,4.1h129.5
	c2.3,0,4.1-1.9,4.1-4.1V84c0-2.3-1.9-4.1-4.1-4.1H177.4z"/>
<path class="st0" d="M531.9,230.3H402.4c-3.8,0-6.9-3.1-6.9-6.9V84c0-3.8,3.1-6.9,6.9-6.9h129.5c3.8,0,6.9,3.1,6.9,6.9v139.4
	C538.8,227.2,535.7,230.3,531.9,230.3z M402.4,79.9c-2.3,0-4.1,1.9-4.1,4.1v139.4c0,2.3,1.9,4.1,4.1,4.1h129.5
	c2.3,0,4.1-1.9,4.1-4.1V84c0-2.3-1.9-4.1-4.1-4.1H402.4z"/>
<path class="st0" d="M756.9,230.3H627.4c-3.8,0-6.9-3.1-6.9-6.9V84c0-3.8,3.1-6.9,6.9-6.9h129.5c3.8,0,6.9,3.1,6.9,6.9v139.4
	C763.8,227.2,760.7,230.3,756.9,230.3z M627.4,79.9c-2.3,0-4.1,1.9-4.1,4.1v139.4c0,2.3,1.9,4.1,4.1,4.1h129.5
	c2.3,0,4.1-1.9,4.1-4.1V84c0-2.3-1.9-4.1-4.1-4.1H627.4z"/>
<path class="st1" d="M660.2,246.1c-0.6,0-1,0.4-1,1v8c0,0.6,0.4,1,1,1h64c0.6,0,1-0.4,1-1v-8c0-0.6-0.4-1-1-1H660.2z"/>
<path class="st2" d="M435.2,246.1c-0.6,0-1,0.4-1,1v8c0,0.6,0.4,1,1,1h64c0.6,0,1-0.4,1-1v-8c0-0.6-0.4-1-1-1H435.2z"/>
<path class="st0" d="M210.2,246.1c-0.6,0-1,0.4-1,1v8c0,0.6,0.4,1,1,1h64c0.6,0,1-0.4,1-1v-8c0-0.6-0.4-1-1-1H210.2z"/>
<path class="st5" d="M177,377.7l-3,13c0,0,1,30-7,27s-6-29-6-29l7-13L177,377.7z"/>
<circle class="st5" cx="132.5" cy="215.2" r="20"/>
<path class="st5" d="M117,220.7l-2,29l25,3c0,0,0-24,2-27S117,220.7,117,220.7z"/>
<path class="st0" d="M172.4,258.5L140,244.8c0,0-15.5-11.9-24.5-3.1l-4.1,5.8c0,0-36,14-36,25l14,55c0,0-8,31,4,33l65,5.9
	c0,0,9-11,1-25l3-33L172.4,258.5z"/>
<path class="st0" d="M150.4,259.5l22-1c0,0,7,2,12,21s6,50,6,50l-12,56l-15-2l6-54l-10-36L150.4,259.5z"/>
<path class="st0" d="M87.4,265.6L76.6,269c0,0-9.1,13.6-9.1,20.6s-3.9,60-3.9,60l26,43l8-21l-16-27l13-33L87.4,265.6z"/>
<path class="st6" d="M161.5,364.2l-71.9-6.3c0,0-7.1,45.3-6.1,63.3s2,46,2,46l-8,122l31-4l4-101l13-55l15,70l10,90l27-3l-9-109
	C168.5,477.2,176.5,379.2,161.5,364.2z"/>
<path class="st6" d="M171.5,581.2l9,3c0,0,19-5,14,8s-19,11-19,11s-17,13-24,3l4-21L171.5,581.2z"/>
<path class="st6" d="M98.5,581.2l9,3c0,0,19-5,14,8s-19,11-19,11s-17,13-24,3l4-21L98.5,581.2z"/>
<path class="st6" d="M117,232.7c0,0-21-15-10-33c7.6-12.5,23.4-11.5,32.4-9.7c4.9,0.9,9.1,4.2,11.1,8.7c1.5,3.5,1.5,7-4.5,7
	c-12,0-6,9-6,9s-8,2-6,9S117,232.7,117,232.7z"/>
<path class="st6" d="M835.8,584c0,0-22.2,1.7-19.9,9.7s19.9,6.8,19.9,6.8s13.6-1.1,21,1.1s15.9,0,16.5-4c0.6-4-4-6.8-4-6.8l-2.8-5.7
	L835.8,584z"/>
<path class="st7" d="M777.5,406.3l-2.3,9.1c0,0-10.2,21,2.3,21s8-19.3,8-19.3l1.1-9.1L777.5,406.3z"/>
<path class="st7" d="M887.3,398.9l2.3,9.1c0,0,10.2,21-2.3,21s-8-19.3-8-19.3l-1.1-9.1L887.3,398.9z"/>
<circle class="st7" cx="828.1" cy="219.7" r="24.5"/>
<path class="st7" d="M820.8,238.5c0,0,2.8,13.1,1.1,19.3s35.3-1.1,35.3-1.1s-13.1-21.6-12.5-22.2L820.8,238.5z"/>
<path class="st0" d="M826.4,253c0,0-10.2-2.8-13.6,0.6s-23.3,13.1-23.3,13.1l13.7,83.6l59.1-13.1l10.2-79c0,0-16.1-9.4-18.9-7.6
	S826.4,253,826.4,253z"/>
<path class="st0" d="M794,267.2l-2.7-1.5c0,0-10.3,2-9.8,10s2.9,52.3,2.9,52.3l-9,80.2l16.5,2.8l16.4-67.1L794,267.2z"/>
<path class="st0" d="M870.7,259.8l2.7-1.5c0,0,10.4,2,9.8,10s-2.8,52.3-2.8,52.3l9.2,80.2l-16.5,2.9l-16.5-67.1L870.7,259.8z"/>
<path class="st6" d="M803.7,342l-2.3,34.7l-7.4,69.4l10.8,143.9l37.5,1.1L831,454l11.4-47.2l37.2-1.4c0,0,2.6-54.3-18.4-71.4
	L803.7,342z"/>
<polygon class="st6" points="844.6,398.9 838.7,524.2 836.7,587.6 870.2,591.1 878.7,404.6 865.7,391.5 "/>
<path class="st6" d="M838.9,187.3c0,0-22.2-2.8-28.4,8c0,0-1.7,8-7.4,10.8s1.1,12.5,2.8,15.4s6.3,19.3,1.1,23.3s9.1,15.4,9.1,15.4
	s6.8,9.1,1.1,15.9s7.4,9.1,7.4,9.1s-2.8,19.3,2.3,14.2c0,0,2.3,43.8,23.9,16.5s30.7-40.4,21.6-51.2s-2.3-20.5-2.3-20.5
	s2.8-5.7-3.4-14.2S860.6,187.3,838.9,187.3z"/>
<path class="st6" d="M806.8,587.4c0,0-22.2,1.7-19.9,9.7s19.9,6.8,19.9,6.8s13.6-1.1,21,1.1s15.9,0,16.5-4c0.6-4-4-6.8-4-6.8
	l-2.8-5.7L806.8,587.4z"/>
<polygon class="st2" points="555.2,119.7 522.7,100.1 532.2,136.8 537.9,123.5 547.5,136.2 550.3,134.1 540.8,121.4 "/>
<polygon class="st8" points="599.1,119.7 631.6,100.1 622.1,136.8 616.4,123.5 606.8,136.2 604,134.1 613.5,121.4 "/>
</svg>
