<?xml version="1.0" encoding="utf-8"?>
<!-- Generator: Adobe Illustrator 25.2.1, SVG Export Plug-In . SVG Version: 6.00 Build 0)  -->
<svg version="1.1" id="fec905af-3345-402f-97ed-aa4ad24ff568"
	 xmlns="http://www.w3.org/2000/svg" xmlns:xlink="http://www.w3.org/1999/xlink" x="0px" y="0px" viewBox="0 0 883.3 604.2"
	 style="enable-background:new 0 0 883.3 604.2;" xml:space="preserve">
<style type="text/css">
	.st0{fill:#FFB8B8;}
	.st1{fill:#2F2E41;}
	.st2{fill:#2A9D8F;}
	.st3{fill:#E6E6E6;}
	.st4{fill:#535461;}
	.st5{fill:#A0616A;}
</style>
<path class="st0" d="M758.3,252.3c12.2,12.8,25.8,14.8,40.7,6.1c-6.3-10.1-7.8-21-6.1-32.6h-29.2C765,235.9,764.7,245.4,758.3,252.3
	z"/>
<polygon class="st0" points="806.5,586.4 822.1,578.3 828.9,492 828.9,446.5 792.9,445.8 803.1,491.3 "/>
<polygon class="st0" points="761.2,586.4 745.6,578.3 738.8,492 738.8,446.5 774.8,445.8 764.6,491.3 "/>
<path class="st1" d="M737.2,456l38-3.4l6.1-34.6l7.5,34l41.4-2.7c0.9-16.5-1.4-33.5-6.8-50.9l-91-2L737.2,456z"/>
<path class="st0" d="M697.7,325.9L652,290.7c-0.5-0.4-1-0.7-1.6-0.9l-6.6-2.7c-5.3-2.2-15.5-9.4-10.6-16.8c4-6,19.3,4.7,21.2,8.7
	c0.6,1.3,1.6,2.3,2.8,3l9.3,5.1c0.2,0.1,0.5,0.2,0.7,0.3l35.4,14.3c2,0.8,4.2,0.6,6.1-0.5l6.4-4.1c3.1-2,7.2-1,9.2,2.1
	c0.4,0.7,0.7,1.5,0.9,2.3l2.1,10.7c0.6,3.2-1.1,6.4-4.2,7.5l-19,7.2C702,327.7,699.5,327.4,697.7,325.9z"/>
<path class="st2" d="M706.2,300.3c12.7-3.4,11.3,14.3,21,23l19-15l-11-53.3l0,0c-6,1.7-10.8,6.1-13,11.9L706.2,300.3z"/>
<path class="st2" d="M729.8,399.7h95.8c-15.5-41.8-14-84.7-0.8-128.5c0.5-1.5-0.2-3.1-1.6-3.8L795.7,253c-10.8,7-22.4,4.9-34.6-4.8
	l-29.9,8.1C739.3,305.2,739.5,353.1,729.8,399.7z"/>
<path class="st1" d="M753.7,602.4l-39.9,1.7c-3.6,0.2-6.7-2.4-7.3-6l0,0c-0.5-3.6,1.8-7,5.3-7.9l6.8-1.7l26.6-15.4
	c3.9,4.1,9.4,7.5,16,10.5l0.1,10.8C761.3,598.7,758,602.2,753.7,602.4z"/>
<path class="st1" d="M813.7,601.8l39.9,1.7c3.6,0.2,6.7-2.4,7.3-6l0,0c0.5-3.6-1.8-7-5.3-7.9l-6.8-1.7l-26.6-15.4
	c-3.9,4.1-9.4,7.5-16,10.5l-0.1,10.8C806.1,598.1,809.5,601.6,813.7,601.8z"/>
<circle class="st0" cx="775.3" cy="216.3" r="21.7"/>
<path class="st0" d="M809.2,392.9l-7.2,14c-2.5,4.8-0.6,10.7,4.2,13.2c0.3,0.2,0.7,0.3,1,0.5l0,0c5.1,1.9,10.7-0.7,12.6-5.7
	c0.2-0.7,0.4-1.3,0.5-2l3-20.5l10.9-51.6l-0.7-25.8H812C819.4,334,815.7,362.3,809.2,392.9z"/>
<path class="st2" d="M808.6,317.5h29.2l-4.2-32c-1.2-8.8-6.7-16.5-14.8-20.3l0,0L808.6,317.5z"/>
<path class="st1" d="M798.4,204.3c0.9-5.9-0.8-11.8-4.6-16.4c-3.7-4.4-9.9-8-20.2-6.3c-22.5,3.7-29,22.4-26.8,27.1s9,15.6,9,15.6
	s-5-10.8,0.4-13s26.2-10.9,33.5-7c4.2,2.1,6.9,6.3,7.2,11L798.4,204.3z"/>
<path class="st3" d="M426.4,113.9l-8.7,4.4c-10.1-19.8-23.4-37.8-39.4-53.2C299.4-10.6,173.7-8.1,98,70.6s-73.3,204.5,5.5,280.2
	c15,14.4,32.2,26.4,50.9,35.5l-4.3,8.8C46.8,345,3.7,220.6,53.9,117.3S228.5-29.2,331.8,21C372.6,40.8,405.9,73.4,426.4,113.9z"/>
<path class="st3" d="M130.8,296.1c-26.8,27.8-25.9,72.1,1.9,98.9s72.1,25.9,98.9-1.9l12-12.5l-100.8-96.9L130.8,296.1z"/>
<path class="st4" d="M136.1,276.5c-6,6.2-5.8,16.1,0.4,22l92.5,88.9c6.2,6,16.1,5.8,22-0.4c6-6.2,5.8-16.1-0.4-22l0,0l-92.5-88.9
	C151.9,270.1,142,270.3,136.1,276.5z"/>
<path class="st3" d="M413.4,204l12-12.5c26.8-27.8,25.9-72.1-1.9-98.9c-27.8-26.8-72.1-25.9-98.9,1.9l-12,12.5L413.4,204z"/>
<path class="st4" d="M305.2,100.6c-6,6.2-5.8,16.1,0.4,22l92.5,88.9c6.2,6,16.1,5.8,22-0.4c6-6.2,5.8-16.1-0.4-22l0,0l-92.5-88.9
	C321.1,94.2,311.2,94.4,305.2,100.6z"/>
<path class="st4" d="M344.2,306v-7.2c0,0,31.5-17.7,57.1,0v6.6L344.2,306z"/>
<path class="st4" d="M631.2,306v-7.2c0,0,31.5-17.7,57.1,0v6.6L631.2,306z"/>
<path class="st3" d="M438.8,305.3h-30.9c0,0-7.9-9.2-34.1-8.5s-31.5,8.5-31.5,8.5s-25.9,17.4-31.8,39.1c0,0-31.8,95.5-32.5,170.4
	s28.2,85.4,43.3,87.3c15.1,2,42-0.7,68.3-67l11.2-38.7c0,0,2-23,25.6-8.5S471,480,471,480h88.6c0,0,29.5,18.4,56.5,3.9
	c0,0,10.5-13.8,20.4,32.8c0,0,30.2,95.9,76.8,86s41.4-90,41.4-90s-6.2-122.5-31.8-165.8c0,0-24.6-45-41-46.9c0,0-35.5-6.6-49.2-0.7
	l-7.9,6.6L438.8,305.3z"/>
<circle class="st4" cx="367.2" cy="369.7" r="57.1"/>
<circle class="st4" cx="665.3" cy="369.7" r="57.1"/>
<path class="st3" d="M377.2,357l-7.6,6.7c-1.3,1.2-3.3,1.2-4.7,0l-7.6-6.7c-0.8-0.7-1.2-1.6-1.2-2.6v-18.5c0-1.9,1.6-3.5,3.5-3.5
	h15.3c1.9,0,3.5,1.6,3.5,3.5v18.5C378.4,355.3,377.9,356.3,377.2,357z"/>
<path class="st3" d="M377.2,382.4l-7.6-6.7c-1.3-1.2-3.3-1.2-4.7,0l-7.6,6.7c-0.8,0.7-1.2,1.6-1.2,2.6v18.5c0,1.9,1.6,3.5,3.5,3.5
	h15.3c1.9,0,3.5-1.6,3.5-3.5v-18.5C378.4,384.1,377.9,383.1,377.2,382.4z"/>
<path class="st3" d="M354.5,379.7l6.7-7.6c1.2-1.3,1.2-3.3,0-4.7l-6.7-7.6c-0.7-0.8-1.6-1.2-2.6-1.2h-18.5c-1.9,0-3.5,1.6-3.5,3.5
	v15.3c0,1.9,1.6,3.5,3.5,3.5h18.5C352.9,380.9,353.8,380.4,354.5,379.7z"/>
<path class="st3" d="M379.9,379.7l-6.7-7.6c-1.2-1.3-1.2-3.3,0-4.7l6.7-7.6c0.7-0.8,1.6-1.2,2.6-1.2h18.5c1.9,0,3.5,1.6,3.5,3.5
	v15.3c0,1.9-1.6,3.5-3.5,3.5h-18.5C381.6,380.9,380.6,380.4,379.9,379.7z"/>
<circle class="st4" cx="444.7" cy="432.1" r="41.4"/>
<circle class="st4" cx="587.8" cy="432.1" r="41.4"/>
<circle class="st3" cx="444.7" cy="432.1" r="27.6"/>
<path class="st4" d="M444.7,451.1c-10.5,0-19-8.5-19-19c0-10.5,8.5-19,19-19c10.5,0,19,8.5,19,19c0,0,0,0,0,0
	C463.7,442.6,455.2,451.1,444.7,451.1z M444.7,414.3c-9.8,0-17.7,7.9-17.7,17.7c0,9.8,7.9,17.7,17.7,17.7c9.8,0,17.7-7.9,17.7-17.7
	c0,0,0,0,0,0C462.4,422.3,454.5,414.4,444.7,414.3z"/>
<circle class="st3" cx="587.8" cy="432.1" r="27.6"/>
<path class="st4" d="M587.8,451.1c-10.5,0-19-8.5-19-19s8.5-19,19-19c10.5,0,19,8.5,19,19C606.9,442.6,598.3,451.1,587.8,451.1z
	 M587.8,414.3c-9.8,0-17.7,7.9-17.7,17.7c0,9.8,7.9,17.7,17.7,17.7c9.8,0,17.7-7.9,17.7-17.7c0,0,0,0,0,0
	C605.5,422.3,597.6,414.4,587.8,414.3z"/>
<circle class="st4" cx="517.6" cy="436.7" r="11.8"/>
<circle class="st4" cx="499.5" cy="397.2" r="2.6"/>
<circle class="st4" cx="509.2" cy="397.2" r="2.6"/>
<circle class="st4" cx="507.9" cy="409.5" r="2.6"/>
<circle class="st4" cx="516.9" cy="409.7" r="2.6"/>
<circle class="st4" cx="525.9" cy="409.5" r="2.6"/>
<circle class="st4" cx="504" cy="403.7" r="2.6"/>
<circle class="st4" cx="512.3" cy="403.8" r="2.6"/>
<circle class="st4" cx="520.9" cy="403.8" r="2.6"/>
<circle class="st4" cx="529.8" cy="403.7" r="2.6"/>
<circle class="st4" cx="516.9" cy="397.3" r="2.6"/>
<circle class="st4" cx="526.1" cy="397.3" r="2.6"/>
<circle class="st4" cx="533.7" cy="397.2" r="2.6"/>
<path class="st4" d="M419.4,310.9c-2.5,0-4.6,2.1-4.6,4.6v13.8c0,2.5,2.1,4.6,4.6,4.6h3.3c2.5,0,4.6-2.1,4.6-4.6v-13.8
	c0-2.5-2.1-4.6-4.6-4.6H419.4z"/>
<path class="st4" d="M611.1,310.9c-2.5,0-4.6,2.1-4.6,4.6v13.8c0,2.5,2.1,4.6,4.6,4.6h3.3c2.5,0,4.6-2.1,4.6-4.6v-13.8
	c0-2.5-2.1-4.6-4.6-4.6H611.1z"/>
<circle class="st3" cx="666" cy="334.9" r="15.8"/>
<circle class="st3" cx="632.5" cy="368.4" r="15.8"/>
<circle class="st3" cx="700.8" cy="366.4" r="15.8"/>
<circle class="st3" cx="668.6" cy="401.2" r="15.8"/>
<path class="st4" d="M449.1,301.8c-7.3,0-13.3,5.9-13.3,13.3v58.8c0,7.3,5.9,13.3,13.3,13.3h134.9c7.3,0,13.3-5.9,13.3-13.3V315
	c0-7.3-5.9-13.3-13.3-13.3H449.1z"/>
<path class="st4" d="M676.7,342.1h-21.4l10.3-17.7L676.7,342.1z M657.6,340.8h16.7l-8.6-13.8L657.6,340.8z"/>
<path class="st4" d="M641.3,376.3h-17.7v-15.8h17.7V376.3z M624.9,374.9H640v-13.1h-15.1V374.9z"/>
<path class="st4" d="M700.8,376.3c-5.4,0-9.8-4.4-9.8-9.8s4.4-9.8,9.8-9.8s9.8,4.4,9.8,9.8C710.6,371.9,706.2,376.3,700.8,376.3z
	 M700.8,357.9c-4.7,0-8.5,3.8-8.5,8.5s3.8,8.5,8.5,8.5c4.7,0,8.5-3.8,8.5-8.5c0,0,0,0,0,0C709.3,361.7,705.5,357.9,700.8,357.9
	L700.8,357.9z"/>
<rect x="667.8" y="390.8" transform="matrix(0.7071 -0.7071 0.7071 0.7071 -87.9232 590.1622)" class="st4" width="1.3" height="20.9"/>
<rect x="658.1" y="400.4" transform="matrix(0.7226 -0.6913 0.6913 0.7226 -91.7541 573.4731)" class="st4" width="20.9" height="1.3"/>
<path class="st1" d="M139.6,151.7c-35.9,9.9-75.1,17.3-89.2,5.8c7.7-12.8,12.1-25.5,12.5-37.9c0.1-5.7,2.4-11.1,6.4-15.1
	c5.4-5.2,12.9-7.7,20.3-6.6l9.3,1.3c0.3,0,0.6,0.1,0.9,0.1c9.2,1.7,16.2,9.1,17.5,18.3C119.3,131.2,125.9,142.8,139.6,151.7z"/>
<path class="st5" d="M174.2,279.4l13.9,2.9c4,0.8,6.5,4.7,5.7,8.6c-0.1,0.5-0.3,1-0.4,1.4l0,0c-1.6,3.7-5.9,5.4-9.6,3.8
	c-0.3-0.1-0.6-0.3-0.9-0.5l-21.3-13.1l-36.2-85.1L144,192L174.2,279.4z"/>
<polygon class="st5" points="74.9,391.1 64.3,394.1 56.3,377.6 64.5,373.4 "/>
<polygon class="st5" points="69.5,461.7 56.6,458.3 58.6,436.1 69.7,436.8 "/>
<path class="st1" d="M70.9,375.6l-13.7,9L4.4,325c-4.3-4.9-3.8-12.3,1-16.6c0.5-0.5,1.1-0.9,1.8-1.3l65.7-39.3l10.1,28.9l-34.2,32.1
	L70.9,375.6z"/>
<path class="st1" d="M82.4,406.9c0,0-0.1,0.1-0.1,0.1c-0.9,5.1-2.4,9.8-5.9,13.2c-2.1,4.8-7.5,7.2-12.4,5.6l0,0
	c-4.7-1.5-7.6-6-7.1-10.9l2.6-22.9c6.1-1.4,10.8-4.9,13.2-11.7l6,4.1c7.2,4.9,9.1,14.6,4.2,21.8C82.7,406.4,82.6,406.6,82.4,406.9z"
	/>
<circle class="st5" cx="88.9" cy="125.7" r="21.1"/>
<path class="st5" d="M107.2,159.4L73.9,187l-2.6-11.3l5.8-8.9c1.6-8.7,0.6-18.3-2.2-28.4l21.7,0C97.6,146.6,100.8,153.8,107.2,159.4
	z"/>
<path class="st2" d="M116.6,231.7l-44.9,13.7l-3.5-16c-8.4-11.3-12.1-21.6-6.6-30l-2.8-12.7c8-6.3,14.2-12.7,17.6-19.3l27.6-10.8
	l20.3,1.3l6,20.1L116.6,231.7z"/>
<path class="st2" d="M148.5,194.2c-9.6-0.1-18.9,2.8-26.8,8.2l2.7-44.6l0,0c5.7,0.8,10.5,4.4,12.7,9.7L148.5,194.2z"/>
<path class="st1" d="M70.7,442.1l-14.3-3.5l2.1-121.2l19.1-21l-4.3-26.6l-2.8-29.8l46.8-11.6c15.8,28.7,25.4,54.8,11.4,71.1
	L70.7,442.1z"/>
<path class="st1" d="M67.4,483c-0.1,0-0.1,0-0.2,0.1c-4.1,4.8-8.7,8.7-14.4,10.1c-5.2,3.6-12.3,2.8-16.5-1.9l0,0
	c-3.9-4.5-4.2-11.1-0.6-15.8l17.1-22.3c7.3,2.4,14.4,1.7,21.2-3.9l3.7,8c4.5,9.6,0.3,21-9.3,25.4C68.1,482.7,67.8,482.9,67.4,483z"
	/>
<path class="st5" d="M15.4,293.9L2.8,304.6c-3.4,2.9-3.8,8-0.9,11.5c0.8,0.9,1.7,1.6,2.8,2.1l0,0c3.9,1.8,8.5,0.2,10.5-3.6l9.1-16.9
	L65.8,222l-15.6-2.9L15.4,293.9z"/>
<path class="st2" d="M68.3,224.2c-8.1-2.4-15.7-3.9-21.6-2c1.2-15.3,3.8-28.9,12-35.4l11.8,1.4L68.3,224.2z"/>
<path class="st1" d="M112.5,120.8L67.3,118l0.6-9c15.8-10.6,30.8-9.7,45.1,2.8L112.5,120.8z"/>
</svg>
