<?xml version="1.0" encoding="utf-8"?>
<!-- Generator: Adobe Illustrator 25.0.0, SVG Export Plug-In . SVG Version: 6.00 Build 0)  -->
<svg version="1.1" id="Capa_1" xmlns="http://www.w3.org/2000/svg" xmlns:xlink="http://www.w3.org/1999/xlink" x="0px" y="0px"
	 viewBox="0 0 1200 1200" style="enable-background:new 0 0 1200 1200;" xml:space="preserve">
<style type="text/css">
	.st0{fill:#2A9D8F;}
</style>
<g>
	<path class="st0" d="M358.9,1012.3l-8.1-0.6c-2.6,0-6,0.3-10,0.9c-4,0.6-6,1.9-6,3.9l-0.4,28.3c0,3.6-3.6,5.4-10.7,5.4
		c-7.2,0-13.5-3-19-9.1c-5.5-6-8.2-14.9-8.2-26.6s2.7-20.3,8-25.8c5.3-5.6,12.3-8.3,20.9-8.3c3.6,0,7.4,0.6,11.2,1.8
		c3.9,1.2,6.5,2.3,7.8,3.3c1.3,1,2.6,1.6,3.8,1.6c1.2,0,3.1-1.4,5.7-4.2c2.6-2.8,5-7,7.1-12.6c2.1-5.6,3.1-10,3.1-13
		c0-3.1-0.1-5.1-0.2-6.2c-2.9-3.2-8.3-5.7-16.1-7.6c-7.8-1.9-16.6-2.8-26.4-2.8c-21.4,0-38.1,6.7-50.2,20.2
		c-12.1,13.5-18.1,31-18.1,52.5c0,25.3,6.2,44.4,18.5,57.5c12.4,13.1,28.6,19.6,48.7,19.6c10.8,0,20.4-0.9,28.9-2.8
		c8.4-1.9,14-3.8,16.8-5.7l0.8-65.2C366.8,1014.6,364.1,1013.1,358.9,1012.3z"/>
	<path class="st0" d="M449.9,942.7c-19,0-28.5,0.6-28.5,1.7l-36.9,141c0,0.4,1.6,1,4.8,1.8c3.2,0.8,8.1,1.1,14.8,1.1
		c12.5,0,19.2-2.2,20-6.5l6-25.8h33.1l6.9,26.9c1,3.9,7.5,5.8,19.6,5.8c3.8,0,8.8-0.3,15.2-0.8c6.4-0.6,9.6-1.3,9.6-2.3l-36-141.2
		C478.4,943.3,468.9,942.7,449.9,942.7z M435.3,1029.6l11.2-43.1h1.2l9.4,43.1H435.3z"/>
	<path class="st0" d="M685,943.5c-7.2-0.8-13.3-1.1-18.4-1.1c-17.9,0-27.5,1.8-28.8,5.4l-20.4,65.8l-23.3-65.6
		c-0.8-2.2-4.9-3.7-12.1-4.5c-7.2-0.8-13.3-1.1-18.3-1.1c-16.9,0-25.4,1.7-25.4,5l-4.8,135.4c-0.1,2.5,3.1,4.2,9.8,5.2
		c3.2,0.4,6.5,0.6,9.9,0.6c3.4,0,7.7-0.4,12.8-1.1c5.1-0.8,7.8-2.2,7.9-4.3l2.9-83.1l26.2,85.6c0.3,1.5,4.9,2.3,13.7,2.3
		c8.9,0,13.6-0.8,14.2-2.5l25.4-84.6l4.4,83.5c0,2.8,6.2,4.2,18.5,4.2c4.2,0,9-0.3,14.4-1c5.4-0.7,8.1-1.8,8.1-3.3l-6-136.7
		C695.7,945.6,692.1,944.2,685,943.5z"/>
	<path class="st0" d="M806.8,1052.1h-38.3v-20.8h26.5c1.7,0,2.8-2,3.4-5.9c0.6-4,0.9-7.4,0.9-10.3c0-9.7-1.3-14.6-4-14.6h-26.9v-21
		H807c2.9,0,4.4-6.1,4.4-18.4c0-12.3-1.5-18.4-4.4-18.4h-74.6c-3.2,0-4.8,1.8-4.8,5.4v134c0,4.3,2.6,6.5,7.9,6.5h71.2
		c1.9,0,3.3-2.4,4.2-7.1c0.8-4.7,1.3-8.6,1.3-11.6c0-3-0.2-5.8-0.6-8.4C810.7,1055.2,809.1,1052.1,806.8,1052.1z"/>
	<path class="st0" d="M932.8,1008.7c3.3-7,5-14.8,5-23.4c0-28.5-18.3-42.7-54.8-42.7h-39.8c-5.1,0-7.7,2.4-7.7,7.3v135.8
		c0,2.1,6.7,3.1,20,3.1c13.2,0,19.8-1.1,19.8-3.3v-47.3h6.5l19.6,45.6c2.6,3.9,6.7,5.8,12.1,5.8c5.4,0,12.3-3,20.6-9
		c6.1-4.3,9.7-8.1,10.8-11.5l-26.2-43.7C924.7,1021.3,929.5,1015.7,932.8,1008.7z M876.3,1010.7h-1v-31.2h4.4c5.8,0,10,1.2,12.6,3.6
		c2.6,2.4,3.9,6.1,3.9,11.1C896.1,1005.2,889.5,1010.7,876.3,1010.7z"/>
	<rect x="874.7" y="506.6" class="st0" width="65.5" height="65.5"/>
	<path class="st0" d="M352.2,850.7c16.6-0.1,33.2-0.1,49.8-0.2c0.2,0,0.3-0.1,0.3-0.3c0-12.9,0-25.8,0-38.7c0-0.2-0.1-0.3-0.3-0.3
		h-49.8c-0.2,0-0.3,0.1-0.3,0.3v38.9C351.9,850.6,352.1,850.7,352.2,850.7z"/>
	<rect x="256.9" y="506.6" class="st0" width="65.5" height="65.5"/>
	<path class="st0" d="M411.9,851.1l49.9-0.5c0.2,0,0.3-0.1,0.3-0.3c0-12.9,0-25.9,0-38.8c0-0.2-0.1-0.3-0.3-0.3h-49.9
		c-0.2,0-0.3,0.1-0.3,0.3v39.3C411.6,851,411.7,851.1,411.9,851.1z"/>
	<path class="st0" d="M1082.2,1015.3l66.3-116.9c2-3.5,2-7.8-0.1-11.3c-2-3.5-5.8-5.6-9.8-5.6h-78.1
		c52.1-83.3,82.2-181.7,82.2-287.2c0-299.7-243-542.7-542.7-542.7S57.3,294.6,57.3,594.3c0,105.5,30.1,203.9,82.2,287.2H61.3
		c-4,0-7.7,2.1-9.7,5.5s-2.1,7.7-0.2,11.2l64.5,118.8l-64.4,114.4c-2,3.5-1.9,7.8,0.1,11.3c2,3.5,5.8,5.6,9.8,5.6h1077.3
		c4,0,7.8-2.2,9.8-5.6c2-3.5,2-7.8,0-11.3L1082.2,1015.3z M86.2,594.3C86.2,311,316.7,80.5,600,80.5s513.8,230.5,513.8,513.8
		c0,106.3-32.4,205.1-87.9,287.2h-17.2c57.3-81.3,91-180.4,91-287.2c0-275.5-224.1-499.6-499.6-499.6S100.4,318.8,100.4,594.3
		c0,106.8,33.7,205.9,91,287.2h-17.2C118.7,799.5,86.2,700.6,86.2,594.3z M809.2,572v-65.5h65.5v-65.5h65.5v65.5h65.5V572h-65.5
		v65.5h-65.5V572H809.2z M191.5,572v-65.5h65.5v-65.5h65.5v65.5h65.5V572h-65.5v65.5h-65.5V572H191.5z M323.6,343v-65.5h65.5V343
		H323.6z M325.7,791.1h26.3v0h50.4v0h9.2v0h26.7c0.2,0,0.3-0.1,0.3-0.3c0-10.6,0-21.3,0-31.9c0-0.2,0.1-0.3,0.3-0.3
		c26,0,51.9,0,77.9,0c0.2,0,0.3-0.1,0.3-0.3c0-10.6,0-21.3,0-31.9c0-0.2,0.1-0.3,0.3-0.3l16.1,0c0.1,0,0.3-0.1,0.3-0.2
		c4.5-22.7,21.1-42.7,42.6-51.4c0.1,0,0.2-0.2,0.2-0.3c0-52.5,0-85.6-0.1-138c0-0.2,0.2-0.4,0.4-0.3c15.7,5.9,32.6,8.2,49.3,6.9
		c0.2,0,0.3,0.1,0.3,0.3c0,48.9,0,73.2,0,122.1c0,0.2-0.1,0.3-0.3,0.3l-18.6,4.8c-0.5,0-0.6,0.7-0.1,0.8
		c26.3,5.1,53.7,26.7,58.7,54.8c0,0.1,0.1,0.3,0.3,0.3c1.7,0,11.7-0.1,12.7-0.2c0,0,0,0,0,0h3.8v0.2c0,0-0.1,0-0.1,0v32.2
		c0,0.2,0.1,0.3,0.3,0.3h13.2v-0.1h32.8v0.1c10.6,0,21.2,0,31.8,0c0.2,0,0.3,0.1,0.3,0.3c0,10.6,0,21.3,0,31.9
		c0,0.2,0.1,0.3,0.3,0.3h13.2v-0.2h32.9v0.2c22.2,0,44.4,0,66.5,0c0.2,0,0.3,0.1,0.3,0.3v87.9c0,0.2-0.1,0.3-0.3,0.3H325.7
		c-0.2,0-0.3-0.1-0.3-0.3c0-29.3,0-58.6,0-87.9C325.3,791.2,325.5,791.1,325.7,791.1z M688.5,345.7c33.8,45.5,23.6,107.7-17.6,144.9
		c-0.2,0.1-0.3,0.3-0.5,0.4c-17.7,14.7-40.3,23.5-63.1,24.6c-56,2.8-97.2-36.1-108.6-82.8c-8.1-32.9-1.4-69.5,25.3-98.1
		c19.8-21.2,48-33.3,77-33.5C635.2,301,668.2,318.4,688.5,345.7z M676,243.4V178h65.5v65.5H676z M528.3,243.4h-65.5V178h65.5V243.4z
		 M809.2,343v-65.5h65.5V343H809.2z M710.8,1125.7H489.2H80.7l58-103c1.9-3.4,1.9-7.5,0.1-11L80.4,904.2h74.1h36h17.9h783.3h17.9h36
		h73.6l-59.9,105.6c-2,3.5-2,7.7,0,11.2l59.8,104.7L710.8,1125.7L710.8,1125.7z"/>
</g>
</svg>
